<?xml version="1.0" standalone="no"?>
<!DOCTYPE svg PUBLIC "-//W3C//DTD SVG 1.1//EN" "http://www.w3.org/Graphics/SVG/1.1/DTD/svg11.dtd">
<svg version="1.1" xmlns="http://www.w3.org/2000/svg" viewBox="0 0 531.1609776389253 715.779814841956" width="1062.3219552778505" height="1431.559629683912"><!-- svg-source:excalidraw --><metadata></metadata><defs><style class="style-fonts">
      </style></defs><g stroke-linecap="round" transform="translate(415.67368295905993 157.3843739921616) rotate(449.86578480321765 22.69629214775142 24.5)"><path d="M13.1 2.17 C17.23 -0.21, 24.68 0.14, 29.3 1.53 C33.92 2.92, 38.14 6.18, 40.82 10.49 C43.5 14.81, 45.81 22.3, 45.39 27.42 C44.96 32.54, 41.69 37.52, 38.28 41.2 C34.87 44.88, 29.61 49.06, 24.94 49.5 C20.28 49.94, 14.22 47.13, 10.3 43.84 C6.38 40.56, 2.63 34.82, 1.42 29.78 C0.21 24.74, 0.51 18.44, 3.04 13.63 C5.57 8.81, 13.68 3.11, 16.61 0.91 C19.53 -1.3, 20.55 -0.06, 20.58 0.39 M18.11 0.9 C22.56 0.12, 30.45 1.29, 35.05 3.79 C39.65 6.29, 44.19 10.87, 45.7 15.89 C47.21 20.91, 46.16 28.89, 44.12 33.91 C42.08 38.93, 37.58 43.8, 33.45 45.98 C29.31 48.17, 23.94 48.08, 19.31 47 C14.68 45.93, 8.89 43.2, 5.67 39.51 C2.44 35.83, 0.02 30.05, -0.02 24.89 C-0.05 19.74, 2.2 12.85, 5.45 8.58 C8.71 4.3, 17.41 0.58, 19.53 -0.75 C21.64 -2.08, 18.31 -0.2, 18.12 0.59" stroke="none" stroke-width="0" fill="#e64980"></path><path d="M23.03 -0.69 C27.61 -0.75, 33.97 3.26, 37.8 6.94 C41.64 10.62, 45.24 16.32, 46.04 21.41 C46.84 26.5, 45.13 32.96, 42.6 37.47 C40.07 41.99, 35.66 46.95, 30.84 48.5 C26.03 50.05, 18.53 48.94, 13.71 46.77 C8.88 44.59, 4.13 40.03, 1.87 35.47 C-0.4 30.91, -0.83 24.28, 0.12 19.4 C1.08 14.53, 3.54 9.51, 7.6 6.2 C11.66 2.9, 21.49 0.59, 24.51 -0.42 C27.52 -1.44, 25.83 -0.29, 25.7 0.12 M14.96 1.47 C19.02 -0.31, 25.55 0.31, 29.99 2.28 C34.44 4.24, 39.19 8.69, 41.63 13.28 C44.08 17.87, 45.54 24.7, 44.67 29.83 C43.8 34.97, 40.06 41.01, 36.41 44.07 C32.75 47.14, 27.41 48.59, 22.74 48.21 C18.07 47.83, 12.3 45.41, 8.38 41.8 C4.45 38.18, 0.06 31.49, -0.8 26.53 C-1.66 21.57, 0.33 16.42, 3.2 12.03 C6.08 7.65, 14.4 2.11, 16.47 0.23 C18.54 -1.65, 15.59 -0.01, 15.62 0.76" stroke="transparent" stroke-width="4" fill="none"></path></g><g stroke-linecap="round" transform="translate(325.154712530293 53.534374435243706) rotate(449.86578480321765 22.69629214775142 21.92692631223443)"><path d="M32.71 2.66 C36.96 4.25, 40.62 8.19, 42.62 12.43 C44.62 16.66, 45.92 23.62, 44.73 28.05 C43.54 32.48, 39.38 36.31, 35.47 39.02 C31.57 41.74, 25.96 44.69, 21.3 44.34 C16.65 43.98, 10.94 40.44, 7.53 36.91 C4.11 33.37, 1.25 27.74, 0.81 23.11 C0.37 18.48, 2.21 12.87, 4.88 9.14 C7.55 5.41, 11.81 1.78, 16.85 0.75 C21.9 -0.29, 31.96 2.17, 35.13 2.92 C38.31 3.67, 36.25 4.81, 35.91 5.27 M13.91 1.9 C18.5 -0.43, 25.82 -1.51, 30.5 -0.17 C35.18 1.18, 39.5 5.93, 41.98 10 C44.45 14.06, 45.74 19.81, 45.36 24.2 C44.98 28.59, 43.1 33.08, 39.71 36.34 C36.32 39.59, 30.09 43, 25 43.75 C19.92 44.5, 13.34 43.54, 9.21 40.85 C5.09 38.15, 1.4 32.52, 0.26 27.58 C-0.89 22.64, 0.36 15.52, 2.33 11.21 C4.31 6.9, 10.44 2.98, 12.1 1.72 C13.77 0.45, 11.7 3.04, 12.33 3.6" stroke="none" stroke-width="0" fill="#fd7e14"></path><path d="M23.08 0.87 C27.88 0.86, 34.62 2.96, 38.37 5.92 C42.12 8.88, 44.8 13.95, 45.58 18.61 C46.37 23.27, 45.76 29.98, 43.08 33.89 C40.39 37.79, 34.35 40.74, 29.47 42.03 C24.58 43.33, 18.26 43.25, 13.78 41.63 C9.31 40.02, 4.99 36.19, 2.61 32.37 C0.24 28.55, -1.42 23.35, -0.5 18.7 C0.42 14.05, 3.58 7.63, 8.13 4.47 C12.69 1.32, 23.11 0.28, 26.82 -0.22 C30.53 -0.71, 30.51 1.03, 30.39 1.52 M23.21 0.51 C27.79 0.57, 33.84 3.24, 37.49 6.48 C41.14 9.73, 44.48 15.3, 45.1 19.99 C45.72 24.67, 43.78 30.86, 41.21 34.58 C38.64 38.3, 34.17 41.23, 29.67 42.3 C25.16 43.38, 18.94 43.08, 14.19 41.04 C9.44 39, 3.47 34.08, 1.18 30.08 C-1.11 26.07, -1.09 21.51, 0.42 17.01 C1.93 12.52, 6.26 6.08, 10.23 3.11 C14.19 0.15, 21.81 -0.58, 24.22 -0.78 C26.62 -0.98, 24.59 1.4, 24.67 1.9" stroke="#f08c00" stroke-width="4" fill="none"></path></g><g stroke-linecap="round" transform="translate(206.4594247611721 8.19630243848647) rotate(449.86578480321765 22.69629214775142 24.499999999999986)"><path d="M22.22 -0.23 C26.79 -0.53, 33.76 3, 37.53 6.3 C41.3 9.6, 43.95 14.37, 44.84 19.56 C45.72 24.76, 45.12 32.89, 42.85 37.48 C40.57 42.06, 35.73 45.52, 31.17 47.06 C26.62 48.6, 20.07 48.51, 15.5 46.73 C10.92 44.95, 6.25 40.82, 3.73 36.38 C1.22 31.93, -0.45 25.23, 0.41 20.06 C1.27 14.89, 4.66 8.57, 8.87 5.33 C13.08 2.09, 22.37 1.16, 25.69 0.62 C29.01 0.07, 28.94 1.87, 28.81 2.06 M29.1 -0.45 C33.69 0.37, 38.41 5.55, 41.14 9.88 C43.87 14.2, 45.55 20.54, 45.48 25.51 C45.41 30.47, 43.89 35.79, 40.72 39.66 C37.55 43.53, 31.49 47.62, 26.44 48.74 C21.38 49.86, 14.7 49.12, 10.4 46.38 C6.1 43.63, 2.08 37.65, 0.64 32.26 C-0.8 26.87, 0.04 19, 1.73 14.05 C3.43 9.11, 6.72 4.62, 10.8 2.6 C14.89 0.58, 23.22 2.01, 26.25 1.95 C29.28 1.9, 28.86 2.22, 29 2.27" stroke="none" stroke-width="0" fill="#ffa94d"></path><path d="M15.91 2.1 C20.21 0.01, 26.47 -0.06, 31.02 1.78 C35.57 3.61, 41.02 8.71, 43.23 13.12 C45.43 17.53, 45.42 23.36, 44.26 28.25 C43.11 33.15, 39.96 39.09, 36.3 42.5 C32.64 45.9, 27.17 48.42, 22.32 48.67 C17.46 48.93, 10.86 47.44, 7.17 44.03 C3.48 40.61, 0.93 33.58, 0.18 28.17 C-0.56 22.75, -0.09 16.22, 2.71 11.54 C5.52 6.86, 14.13 1.88, 17 0.08 C19.87 -1.72, 19.71 0.35, 19.94 0.73 M23.94 0.28 C28.76 0.45, 35.31 3.82, 38.85 7.6 C42.39 11.39, 44.66 17.92, 45.19 23.01 C45.72 28.1, 44.69 34.09, 42.01 38.16 C39.33 42.24, 34.17 46.29, 29.12 47.47 C24.07 48.66, 16.29 47.34, 11.71 45.28 C7.13 43.21, 3.32 39.82, 1.62 35.07 C-0.07 30.32, 0.19 22.07, 1.54 16.78 C2.89 11.49, 5.75 5.85, 9.7 3.31 C13.66 0.77, 22.65 1.98, 25.27 1.53 C27.89 1.07, 25.68 0.36, 25.4 0.6" stroke="transparent" stroke-width="4" fill="none"></path></g><g stroke-linecap="round" transform="translate(204.3518479823337 101.70221566420582) rotate(449.86578480321765 22.69629214775142 21.926926312234457)"><path d="M29.57 1.44 C34.14 2.4, 38.86 5.25, 41.56 9.23 C44.27 13.2, 46.22 20.58, 45.79 25.3 C45.35 30.01, 42.51 34.56, 38.95 37.52 C35.4 40.49, 29.35 42.83, 24.47 43.1 C19.6 43.37, 13.69 41.87, 9.71 39.15 C5.73 36.42, 1.68 31.32, 0.59 26.73 C-0.5 22.13, 1 15.69, 3.17 11.58 C5.33 7.46, 8.58 3.45, 13.57 2.04 C18.55 0.63, 29.37 2.76, 33.06 3.11 C36.76 3.47, 35.8 3.9, 35.75 4.17 M23.55 0.22 C27.96 0.19, 33.93 2.46, 37.75 5.27 C41.57 8.09, 45.6 12.45, 46.47 17.11 C47.34 21.77, 45.72 28.75, 42.98 33.22 C40.23 37.7, 34.79 42.34, 29.98 43.94 C25.17 45.55, 18.64 44.93, 14.11 42.85 C9.58 40.78, 5.31 35.73, 2.78 31.51 C0.26 27.29, -1.77 21.77, -1.06 17.55 C-0.35 13.33, 2.76 8.92, 7.03 6.19 C11.3 3.47, 21.91 2.28, 24.57 1.2 C27.24 0.11, 23.21 -0.25, 23.03 -0.31" stroke="none" stroke-width="0" fill="#ced4da"></path><path d="M32.75 2.31 C37.05 3.96, 42.24 9.31, 44.09 13.43 C45.94 17.54, 45.4 22.72, 43.86 26.99 C42.31 31.26, 38.72 36.3, 34.81 39.04 C30.91 41.79, 25.29 43.58, 20.45 43.45 C15.61 43.32, 9.21 41.61, 5.8 38.27 C2.38 34.92, 0.29 28.29, -0.06 23.36 C-0.41 18.44, 1.03 12.59, 3.72 8.73 C6.41 4.88, 11.03 1.14, 16.06 0.24 C21.09 -0.66, 30.5 2.65, 33.91 3.35 C37.32 4.04, 36.59 4.26, 36.53 4.4 M25.78 0.32 C30.56 0.69, 36.07 4.15, 39.5 7.52 C42.93 10.88, 46.03 15.98, 46.36 20.51 C46.69 25.04, 44.82 31.1, 41.48 34.71 C38.13 38.32, 31.27 40.98, 26.29 42.18 C21.32 43.37, 15.62 44.05, 11.61 41.87 C7.6 39.7, 4.06 33.72, 2.26 29.11 C0.46 24.49, -0.63 18.26, 0.81 14.18 C2.26 10.11, 6.69 6.99, 10.94 4.66 C15.19 2.33, 24.03 0.81, 26.31 0.2 C28.6 -0.4, 24.54 0.75, 24.64 1.05" stroke="transparent" stroke-width="4" fill="none"></path></g><g stroke-linecap="round"><g transform="translate(300.32876322470594 16.03144203880916) rotate(89.99999999999994 -12.780119292396648 36.26262482315563)"><path d="M2.43 2.55 C-1.2 14.8, -19.22 61.86, -23.76 73.92 M0.31 1.47 C-3.36 12.85, -20.6 58.14, -25.01 69.66" stroke="#e67700" stroke-width="4" fill="none"></path></g></g><mask></mask><g stroke-linecap="round"><g transform="translate(271.2513183121277 63.96873170690418) rotate(89.99999999999994 16.66261072116191 38.98603520966208)"><path d="M1.8 1.39 C7.08 14.36, 28.46 67.93, 34.09 80.33 M-0.66 -0.32 C4.09 13.11, 26.32 63.59, 32.26 76.6" stroke="#1e1e1e" stroke-width="4" fill="none"></path></g></g><mask></mask><g stroke-linecap="round" transform="translate(325.9390367437456 262.22453118788906) rotate(449.86578480321765 22.69629214775142 21.926926312234457)"><path d="M14.04 1.5 C18.13 -0.84, 24.68 -1.25, 29.36 0.03 C34.03 1.31, 39.44 5.21, 42.1 9.19 C44.76 13.17, 45.8 19.23, 45.33 23.9 C44.87 28.56, 42.85 33.82, 39.33 37.19 C35.81 40.57, 29.22 43.59, 24.22 44.12 C19.23 44.66, 13.4 43.33, 9.35 40.41 C5.3 37.48, 1.06 31.18, -0.07 26.58 C-1.19 21.98, -0.08 16.92, 2.6 12.82 C5.28 8.71, 13.39 3.9, 16 1.93 C18.61 -0.04, 18.12 0.8, 18.25 1 M22.39 -0.03 C26.76 -0.09, 32.67 2.77, 36.34 5.69 C40.01 8.61, 43.34 13.29, 44.43 17.49 C45.52 21.7, 45.28 26.83, 42.88 30.91 C40.49 34.99, 34.77 39.77, 30.06 41.99 C25.34 44.21, 18.77 45.4, 14.6 44.24 C10.43 43.09, 7.48 39.34, 5.06 35.04 C2.63 30.75, -0.38 23.57, 0.04 18.48 C0.47 13.4, 4.27 7.7, 7.61 4.55 C10.94 1.41, 17.53 0.26, 20.05 -0.39 C22.58 -1.03, 22.63 0.31, 22.75 0.69" stroke="none" stroke-width="0" fill="#9c36b5"></path><path d="M30.65 0.93 C35.09 2.46, 40.4 7.2, 42.62 11.66 C44.83 16.12, 45 23.14, 43.92 27.68 C42.85 32.23, 39.99 36.35, 36.19 38.93 C32.39 41.52, 26.08 43.42, 21.13 43.17 C16.18 42.92, 10.08 40.51, 6.48 37.43 C2.89 34.36, -0.01 29.39, -0.45 24.71 C-0.89 20.04, 1.05 13.51, 3.84 9.4 C6.63 5.29, 10.79 1, 16.29 0.06 C21.79 -0.88, 32.82 2.35, 36.83 3.78 C40.85 5.2, 40.63 8.21, 40.36 8.61 M24.99 -0.77 C29.29 -0.87, 33.95 1.29, 37.27 4.75 C40.59 8.22, 44.08 15.31, 44.92 20.02 C45.76 24.74, 44.98 29.38, 42.31 33.05 C39.63 36.73, 33.61 40.35, 28.87 42.08 C24.13 43.81, 18.22 45.17, 13.87 43.45 C9.52 41.73, 5.17 36.11, 2.75 31.74 C0.33 27.38, -1.94 21.89, -0.66 17.25 C0.63 12.61, 6.34 6.67, 10.45 3.91 C14.57 1.14, 21.63 1.41, 24.04 0.68 C26.45 -0.06, 24.98 -0.78, 24.9 -0.49" stroke="transparent" stroke-width="4" fill="none"></path></g><g stroke-linecap="round" transform="translate(207.3725176430525 213.84254198625797) rotate(449.86578480321765 22.69629214775142 21.926926312234457)"><path d="M29.77 0.14 C34.27 1.17, 39.75 5.5, 42.34 9.53 C44.93 13.56, 45.85 19.65, 45.29 24.31 C44.74 28.97, 42.61 34.18, 39.03 37.48 C35.44 40.79, 28.8 43.7, 23.8 44.15 C18.79 44.6, 13 43.16, 9 40.17 C5.01 37.17, 0.86 30.8, -0.17 26.18 C-1.21 21.56, 0.49 16.34, 2.78 12.44 C5.08 8.55, 8.88 4.53, 13.59 2.8 C18.31 1.08, 27.64 1.97, 31.09 2.1 C34.54 2.22, 34.35 3.14, 34.3 3.58 M12.07 3.8 C15.81 1.56, 22.34 0.36, 27.1 0.97 C31.85 1.59, 37.8 3.88, 40.6 7.49 C43.4 11.1, 44.31 17.55, 43.89 22.63 C43.47 27.72, 40.86 34.3, 38.08 38 C35.29 41.7, 31.79 44.55, 27.2 44.84 C22.6 45.13, 14.77 42.66, 10.48 39.74 C6.2 36.82, 3.18 31.73, 1.47 27.32 C-0.25 22.9, -1.77 17.33, 0.2 13.24 C2.18 9.14, 11.43 4.54, 13.3 2.76 C15.16 0.98, 11.29 2.47, 11.41 2.58" stroke="none" stroke-width="0" fill="#9c36b5"></path><path d="M15.98 0.56 C20.34 -0.69, 26.42 0.79, 30.9 2.64 C35.38 4.49, 40.63 7.7, 42.88 11.66 C45.12 15.63, 45.63 21.87, 44.4 26.43 C43.16 31, 39.4 36.14, 35.44 39.06 C31.49 41.98, 25.36 44.25, 20.65 43.94 C15.95 43.64, 10.59 40.65, 7.21 37.24 C3.82 33.82, 0.88 28.18, 0.35 23.48 C-0.17 18.77, 1.16 12.86, 4.08 9.01 C7 5.17, 15.32 1.79, 17.88 0.39 C20.44 -1.02, 19.35 0.09, 19.43 0.58 M15.92 -0.5 C20.1 -1.67, 27.39 0.69, 32.06 2.74 C36.73 4.8, 41.93 7.81, 43.96 11.83 C45.99 15.85, 45.62 21.93, 44.26 26.85 C42.9 31.76, 39.67 38.52, 35.79 41.33 C31.91 44.15, 26.03 44.33, 20.95 43.73 C15.87 43.14, 8.57 41.15, 5.31 37.74 C2.05 34.34, 1.57 27.94, 1.39 23.3 C1.2 18.67, 1.45 13.83, 4.19 9.91 C6.93 5.98, 15.75 1.19, 17.83 -0.25 C19.91 -1.68, 16.63 0.86, 16.69 1.31" stroke="transparent" stroke-width="4" fill="none"></path></g><g stroke-linecap="round" transform="translate(207.00922739913102 305.1209698816723) rotate(449.86578480321765 22.69629214775142 24.5)"><path d="M17.55 0.64 C21.82 -0.85, 27.89 0.07, 32.28 2.27 C36.67 4.47, 41.88 9.01, 43.88 13.82 C45.87 18.63, 45.64 25.92, 44.24 31.14 C42.84 36.35, 39.53 42.29, 35.48 45.09 C31.43 47.89, 24.67 48.45, 19.94 47.95 C15.22 47.44, 10.43 45.46, 7.13 42.07 C3.82 38.69, 0.76 32.85, 0.13 27.63 C-0.49 22.41, -0.5 15.34, 3.38 10.75 C7.25 6.16, 19.04 1.45, 23.37 0.08 C27.71 -1.29, 29.59 2.05, 29.39 2.54 M21.87 0.49 C26.48 -0.3, 33.32 1.25, 36.92 4.44 C40.52 7.64, 42.78 14.11, 43.48 19.65 C44.18 25.19, 42.99 32.87, 41.13 37.69 C39.26 42.5, 36.6 47.01, 32.28 48.55 C27.96 50.09, 20 49.05, 15.22 46.93 C10.45 44.81, 6.38 40.27, 3.64 35.84 C0.9 31.4, -2.09 25.23, -1.2 20.3 C-0.31 15.37, 5.21 9.71, 8.97 6.27 C12.72 2.83, 18.99 0.8, 21.35 -0.34 C23.71 -1.49, 23.03 -1.18, 23.12 -0.6" stroke="none" stroke-width="0" fill="#868e96"></path><path d="M12.77 2.83 C16.92 0.53, 24.25 -0.75, 29 0.5 C33.75 1.75, 38.68 5.96, 41.26 10.33 C43.85 14.71, 45.12 21.42, 44.53 26.76 C43.93 32.11, 41.08 38.81, 37.7 42.41 C34.32 46.01, 28.96 48.24, 24.24 48.38 C19.52 48.53, 13.29 46.46, 9.4 43.3 C5.52 40.14, 2.07 34.41, 0.92 29.44 C-0.24 24.46, 0.21 18.08, 2.48 13.43 C4.76 8.78, 12.36 3.39, 14.55 1.56 C16.73 -0.27, 15.56 1.93, 15.6 2.44 M16.33 1.53 C20.98 -0.05, 28.36 -0.64, 32.78 1.29 C37.2 3.22, 40.85 7.99, 42.86 13.12 C44.86 18.24, 45.94 26.82, 44.83 32.04 C43.72 37.26, 40.4 41.55, 36.2 44.43 C32 47.31, 24.31 49.79, 19.63 49.3 C14.94 48.82, 11.33 45.17, 8.08 41.53 C4.83 37.89, 0.65 32.78, 0.13 27.47 C-0.4 22.15, 2.21 14.04, 4.91 9.64 C7.61 5.24, 14.21 2.49, 16.3 1.05 C18.39 -0.39, 17.5 0.48, 17.44 1" stroke="#1e1e1e" stroke-width="4" fill="none"></path></g><g stroke-linecap="round"><g transform="translate(309.41400035003204 223.46426991889) rotate(89.99999999999994 -17.111778439234172 37.29435472497684)"><path d="M-2.3 -0.87 C-7.89 11.58, -30.19 59.61, -35.14 72.12 M1.65 -3.81 C-4.25 9.14, -32.18 60.93, -37.88 74.4" stroke="#9c36b5" stroke-width="4" fill="none"></path></g></g><mask></mask><g stroke-linecap="round"><g transform="translate(275.26412519105514 274.4907075512631) rotate(89.99999999999994 15.52791506044457 36.631957067466374)"><path d="M-0.92 -2.47 C5.02 9.81, 28.22 60.39, 33.31 72.84 M3.78 2.36 C9.75 15.17, 28.42 64.17, 32.29 76.24" stroke="#000000" stroke-width="4" fill="none"></path></g></g><mask></mask><g stroke-linecap="round"><g transform="translate(430.9927931949912 97.75554637878417) rotate(89.99999999999994 -35.09803516059691 29.494390256659642)"><path d="M2.25 -0.42 C-9.53 9.65, -59.26 48.41, -71.64 57.98 M0.03 -3.12 C-10.74 7.57, -54.99 50.71, -66.02 61.06" stroke="#f08c00" stroke-width="4" fill="none"></path></g></g><mask></mask><g stroke-linecap="round"><g transform="translate(363.46083320344115 207.1442751257444) rotate(89.99999999999994 31.47229070588952 29.342379157954184)"><path d="M-1.44 -1.01 C8.37 8.51, 50.64 47.01, 61.13 56.67 M2.97 -4.03 C13.48 5.83, 57.22 48.68, 66.54 59.21" stroke="#9c36b5" stroke-width="4" fill="none"></path></g></g><mask></mask><g stroke-linecap="round"><g transform="translate(464.76505922181553 182.4596653375698) rotate(0 26.111111111111313 0.4070843777205937)"><path d="M-1.82 -2.01 C6.89 -2, 41.71 -1.46, 50.78 -0.91 M2.39 3.06 C12.16 3.5, 48.3 1.52, 56.4 1.78" stroke="#000000" stroke-width="4" fill="none"></path></g><g transform="translate(464.76505922181553 182.4596653375698) rotate(0 26.111111111111313 0.4070843777205937)"><path d="M58.27 3.37 L42.75 7.37 L43.19 -6.07 L54.43 1.23" stroke="none" stroke-width="0" fill="#000000" fill-rule="evenodd"></path><path d="M55.32 1.01 C52.1 3.53, 49.92 4.11, 43.24 7.03 M56.3 1.83 C51.84 4.05, 47.96 5.74, 43.4 7.96 M43.46 8.92 C42.19 5.13, 42.19 2.59, 43.86 -4.02 M43.47 8.19 C42.97 4.86, 43.27 0.4, 42.54 -4.24 M43.56 -3.46 C48.72 -2.88, 53.22 -1.09, 57.56 1.46 M42.48 -4.6 C47.11 -2.75, 51.42 -1.32, 55.67 2.12 M56.4 1.78 C56.4 1.78, 56.4 1.78, 56.4 1.78 M56.4 1.78 C56.4 1.78, 56.4 1.78, 56.4 1.78" stroke="#000000" stroke-width="4" fill="none"></path></g></g><mask></mask><g stroke-linecap="round"><g transform="translate(14.72968193549599 80.83349174107047) rotate(0 32.178101933131984 0.0011381184641834352)"><path d="M-1.44 -1.72 C9.65 -1.31, 54.03 0.07, 64.73 0.46 M2.97 3.51 C13.88 3.19, 53.17 -4.39, 62.69 -4.3" stroke="#364fc7" stroke-width="4" fill="none"></path></g><g transform="translate(14.72968193549599 80.83349174107047) rotate(0 32.178101933131984 0.0011381184641834352)"><path d="M62.52 -5.3 L50.34 1.66 L46.54 -9.73 L64.29 -4" stroke="none" stroke-width="0" fill="#364fc7" fill-rule="evenodd"></path><path d="M61.77 -4.1 C59.86 -3.41, 56.92 -2.07, 50.28 2.26 M62.62 -4.21 C59.19 -2.29, 55.21 0.09, 49.34 2.82 M49.06 3.15 C48.69 0.06, 50.22 -3.3, 48.49 -10.25 M49.85 3.7 C49.68 -1.08, 48.72 -4.71, 48.79 -9.33 M49.83 -9.97 C52.65 -9.32, 55.75 -7.5, 62.75 -4.31 M48.77 -9.39 C54.06 -7.97, 58.07 -5.25, 62.85 -4.27 M62.69 -4.3 C62.69 -4.3, 62.69 -4.3, 62.69 -4.3 M62.69 -4.3 C62.69 -4.3, 62.69 -4.3, 62.69 -4.3" stroke="#364fc7" stroke-width="4" fill="none"></path></g></g><mask></mask><g stroke-linecap="round" transform="translate(79.94243475574359 57.5515298393359) rotate(449.86578480321765 22.69629214775142 21.926926312234457)"><path d="M12.22 3.44 C15.99 1.13, 22.1 -0.09, 26.87 0.77 C31.64 1.63, 37.76 4.79, 40.82 8.62 C43.89 12.45, 45.66 18.97, 45.27 23.74 C44.88 28.52, 41.75 33.97, 38.48 37.29 C35.22 40.6, 30.18 43.16, 25.66 43.64 C21.14 44.12, 15.42 42.7, 11.38 40.18 C7.33 37.67, 3.1 33.14, 1.38 28.54 C-0.34 23.94, -0.93 17.17, 1.05 12.58 C3.04 7.98, 10.85 2.61, 13.29 0.98 C15.72 -0.65, 15.35 2.32, 15.65 2.79 M15.6 0.27 C20.14 -0.85, 29.24 0.34, 33.72 2.39 C38.2 4.43, 40.52 8.48, 42.47 12.54 C44.42 16.6, 46.63 22.06, 45.4 26.75 C44.18 31.44, 39.09 37.62, 35.11 40.7 C31.13 43.77, 26.45 45.73, 21.52 45.19 C16.59 44.66, 8.98 41.14, 5.53 37.5 C2.07 33.86, 1.18 28.07, 0.78 23.33 C0.39 18.59, 0.38 12.97, 3.17 9.08 C5.97 5.2, 15.43 1.25, 17.53 0.04 C19.63 -1.18, 15.57 1.34, 15.78 1.8" stroke="none" stroke-width="0" fill="#f08c00"></path><path d="M16.6 0.11 C20.93 -1.29, 27.49 -0.29, 31.9 1.71 C36.32 3.71, 40.94 7.76, 43.1 12.1 C45.26 16.44, 46.11 23.07, 44.87 27.76 C43.62 32.45, 39.66 37.67, 35.63 40.24 C31.6 42.8, 25.61 43.59, 20.71 43.14 C15.8 42.7, 9.57 40.64, 6.21 37.58 C2.85 34.52, 1.07 29.45, 0.57 24.78 C0.06 20.11, 0.05 13.64, 3.19 9.55 C6.33 5.46, 15.83 1.74, 19.4 0.27 C22.97 -1.21, 24.48 0.48, 24.61 0.68 M25.59 0.82 C30.14 1.02, 37.04 2.71, 40.28 6.08 C43.51 9.45, 44.83 16.26, 45.02 21.05 C45.21 25.84, 44.53 30.99, 41.43 34.84 C38.33 38.7, 31.11 42.87, 26.4 44.19 C21.68 45.5, 17.38 44.85, 13.15 42.73 C8.91 40.62, 3.17 35.85, 0.97 31.49 C-1.23 27.13, -1.6 21.24, -0.08 16.58 C1.45 11.92, 5.83 6.11, 10.11 3.53 C14.38 0.96, 23.07 1.71, 25.57 1.12 C28.06 0.54, 25.05 -0.1, 25.09 0.03" stroke="transparent" stroke-width="4" fill="none"></path></g><g stroke-linecap="round" transform="translate(80.25398958392014 259.86247389955884) rotate(449.86578480321765 22.69629214775142 24.5)"><path d="M24.39 0.4 C29.03 0.47, 35.71 3.69, 39.19 7.57 C42.66 11.46, 45.09 18.4, 45.24 23.72 C45.38 29.04, 42.92 35.41, 40.07 39.5 C37.22 43.59, 32.54 47.13, 28.12 48.26 C23.71 49.38, 17.87 48.56, 13.56 46.25 C9.26 43.95, 4.5 39.34, 2.27 34.42 C0.05 29.5, -1.05 21.93, 0.23 16.73 C1.51 11.53, 5.22 5.75, 9.94 3.21 C14.66 0.68, 25.06 1.77, 28.53 1.52 C32 1.28, 31.06 1.43, 30.75 1.72 M14.19 2.57 C18.34 0.17, 22.9 -0.66, 27.55 0.45 C32.19 1.57, 39.18 4.79, 42.07 9.24 C44.97 13.7, 45.29 21.52, 44.92 27.17 C44.56 32.83, 43.4 39.52, 39.89 43.18 C36.38 46.84, 28.76 48.94, 23.86 49.14 C18.96 49.35, 14.52 47.43, 10.5 44.39 C6.47 41.35, 1.05 36.03, -0.28 30.91 C-1.6 25.78, 0.56 18.26, 2.53 13.62 C4.51 8.98, 9.62 4.85, 11.58 3.04 C13.54 1.24, 13.91 2.31, 14.3 2.8" stroke="none" stroke-width="0" fill="#ced4da"></path><path d="M12.99 2.27 C17 -0.05, 23.7 -0.77, 28.41 0.67 C33.12 2.11, 38.54 6.5, 41.27 10.9 C44.01 15.29, 45.29 22.02, 44.81 27.04 C44.33 32.05, 41.82 37.38, 38.37 40.98 C34.91 44.59, 28.76 47.98, 24.09 48.67 C19.41 49.36, 14.27 48.11, 10.3 45.14 C6.32 42.17, 1.69 35.97, 0.22 30.86 C-1.25 25.74, -1.25 19.37, 1.46 14.48 C4.17 9.58, 13.65 3.87, 16.47 1.47 C19.29 -0.92, 18.36 -0.4, 18.37 0.1 M20.34 -0.71 C24.81 -1.82, 30.19 0.97, 34.29 3.83 C38.38 6.69, 43.56 11.36, 44.92 16.46 C46.29 21.56, 44.25 29.29, 42.48 34.45 C40.71 39.6, 38.49 44.87, 34.29 47.4 C30.1 49.92, 22.37 50.67, 17.29 49.58 C12.2 48.48, 6.71 45.13, 3.78 40.84 C0.84 36.54, -0.64 29.09, -0.31 23.81 C0.02 18.53, 2.54 13.16, 5.76 9.14 C8.98 5.11, 16.64 1.14, 19.01 -0.33 C21.39 -1.8, 19.75 0.03, 20.02 0.32" stroke="transparent" stroke-width="4" fill="none"></path></g><g stroke-linecap="round"><g transform="translate(183.298311712901 275.183205640358) rotate(269.9999999999999 -13.913892810971618 34.6820540897063)"><path d="M-2.5 0.81 C-7.23 12.32, -25.72 58.18, -30.01 69.64 M1.34 -1.21 C-2.38 10.74, -19.53 61.09, -24.79 73.41" stroke="#1e1e1e" stroke-width="4" fill="none"></path></g></g><mask></mask><g stroke-linecap="round"><g transform="translate(156.55850867316752 220.90358333399433) rotate(269.9999999999999 15.349195540403173 36.33728730758571)"><path d="M-2.18 0.27 C3.29 12.28, 24.89 60.72, 30.33 72.84 M1.83 -2.05 C7.12 10.38, 23.45 63.51, 27.89 76.57" stroke="#9c36b5" stroke-width="4" fill="none"></path></g></g><mask></mask><g stroke-linecap="round"><g transform="translate(182.91993496497906 70.8882342708335) rotate(269.9999999999999 -14.866496279801027 35.89336728833928)"><path d="M-0.37 0.17 C-5.01 12.14, -25.42 60.42, -30.01 72.11 M-4.02 -2.21 C-8.86 10.26, -28.28 63.44, -32.4 75.92" stroke="#000000" stroke-width="4" fill="none"></path></g></g><mask></mask><g stroke-linecap="round"><g transform="translate(152.50710781314052 19.184897192180216) rotate(269.9999999999999 15.254067703384976 35.72643094772489)"><path d="M-0.28 0.33 C5.17 11.97, 26.9 58.41, 32.33 70.01 M-3.87 -1.97 C1.4 10.01, 25.19 60.49, 31.08 72.86" stroke="#f08c00" stroke-width="4" fill="none"></path></g></g><mask></mask><g stroke-linecap="round" transform="translate(84.19705983276958 160.50782887779832) rotate(449.86578480321765 22.69629214775142 24.5)"><path d="M29.98 0.75 C34.55 1.87, 39.51 6.7, 41.94 10.96 C44.38 15.21, 45.21 21.22, 44.59 26.28 C43.97 31.33, 41.51 37.37, 38.24 41.31 C34.97 45.24, 29.7 49.42, 24.99 49.89 C20.28 50.36, 14.14 47.35, 9.99 44.11 C5.85 40.88, 1.54 35.73, 0.13 30.47 C-1.29 25.22, -0.71 17.2, 1.5 12.59 C3.71 7.98, 8.59 4.81, 13.36 2.83 C18.14 0.85, 27.29 0.72, 30.14 0.69 C32.98 0.66, 30.7 2.21, 30.43 2.65 M26.76 0.85 C31.27 1.36, 38.55 5.28, 41.47 9.4 C44.39 13.53, 44.56 20.42, 44.29 25.6 C44.01 30.78, 43.18 36.49, 39.83 40.48 C36.47 44.46, 28.87 48.72, 24.16 49.49 C19.44 50.27, 15.4 47.84, 11.54 45.11 C7.67 42.39, 2.73 38.15, 0.97 33.15 C-0.79 28.14, -0.87 20.13, 0.99 15.11 C2.85 10.08, 7.59 5.21, 12.13 2.98 C16.68 0.75, 25.58 2.1, 28.25 1.71 C30.92 1.32, 28.24 0.35, 28.16 0.62" stroke="none" stroke-width="0" fill="#ced4da"></path><path d="M29.1 1.06 C33.74 2.53, 39.92 7.68, 42.49 12.15 C45.06 16.63, 45.41 22.79, 44.52 27.92 C43.63 33.06, 40.54 39.42, 37.15 42.97 C33.76 46.52, 28.96 49.24, 24.19 49.22 C19.42 49.19, 12.45 45.98, 8.53 42.81 C4.62 39.65, 1.71 35.23, 0.7 30.23 C-0.3 25.23, 0.12 17.46, 2.47 12.8 C4.83 8.15, 10 4.11, 14.83 2.3 C19.65 0.49, 28.23 1.64, 31.43 1.96 C34.63 2.28, 34.11 3.95, 34.02 4.21 M28.42 2.12 C32.61 3.23, 37.82 8, 40.57 12.21 C43.32 16.43, 45.3 22.23, 44.92 27.41 C44.53 32.58, 41.82 39.78, 38.26 43.27 C34.7 46.77, 28.35 48.3, 23.58 48.38 C18.82 48.45, 13.34 46.97, 9.65 43.73 C5.96 40.48, 2.89 33.83, 1.44 28.9 C-0.01 23.97, -1.13 18.63, 0.97 14.16 C3.07 9.69, 9.09 4.42, 14.03 2.06 C18.98 -0.3, 28.06 0.04, 30.63 -0.02 C33.2 -0.08, 29.8 1.18, 29.47 1.72" stroke="transparent" stroke-width="4" fill="none"></path></g><g stroke-linecap="round"><g transform="translate(11.028593427201827 185.8142877951061) rotate(0 32.178101933131984 0.0011381184641834352)"><path d="M1.81 -1.51 C11.93 -1.65, 52.17 -2.74, 62.49 -2.28 M-0.65 3.84 C10.2 4.11, 57.5 1.36, 67.88 0.11" stroke="#364fc7" stroke-width="4" fill="none"></path></g><g transform="translate(11.028593427201827 185.8142877951061) rotate(0 32.178101933131984 0.0011381184641834352)"><path d="M66.63 0.44 L55.8 7.19 L52.37 -5.19 L68.49 -0.75" stroke="none" stroke-width="0" fill="#364fc7" fill-rule="evenodd"></path><path d="M67.07 -0.89 C61.86 2.58, 58.97 6.26, 53.92 7.19 M68.05 0.09 C64.09 2.22, 62.21 3.62, 54.86 7.85 M54.99 8.09 C54.25 1.87, 54.92 -0.87, 54.93 -5.78 M54.71 7.55 C54.55 3.23, 53.99 -2.13, 54.03 -5.29 M54.48 -4.79 C58.83 -1.71, 62.72 -0.88, 68.1 0.21 M54.25 -5.14 C57.92 -2.83, 61.82 -1.71, 67.87 -0.39 M67.88 0.11 C67.88 0.11, 67.88 0.11, 67.88 0.11 M67.88 0.11 C67.88 0.11, 67.88 0.11, 67.88 0.11" stroke="#364fc7" stroke-width="4" fill="none"></path></g></g><mask></mask><g stroke-linecap="round"><g transform="translate(11.865515220537759 284.30226700797255) rotate(0 32.178101933131984 0.0011381184641550135)"><path d="M-1.87 -2.29 C8.46 -1.83, 52.52 1.11, 63.76 1.2 M2.32 2.65 C12.05 2.39, 50.84 -2.79, 61.19 -3.15" stroke="#364fc7" stroke-width="4" fill="none"></path></g><g transform="translate(11.865515220537759 284.30226700797255) rotate(0 32.178101933131984 0.0011381184641550135)"><path d="M62.15 -3.5 L46.77 4.28 L47.7 -9.13 L59.31 -2.23" stroke="none" stroke-width="0" fill="#364fc7" fill-rule="evenodd"></path><path d="M59.97 -3.48 C57.06 0.15, 50.76 1.91, 47.35 4.52 M60.56 -2.96 C56.77 -0.42, 51.03 3.06, 48.66 3.87 M47.9 3.26 C48.62 1.59, 48.69 -3.3, 48.01 -9.2 M48.21 4.76 C47.64 -0.66, 47.61 -5.36, 47.44 -8.79 M47.15 -6.86 C48.93 -6.87, 53.08 -6.11, 61.04 -1.81 M47.08 -7.64 C49.79 -6.99, 52.83 -6.68, 60.45 -3.22 M61.19 -3.15 C61.19 -3.15, 61.19 -3.15, 61.19 -3.15 M61.19 -3.15 C61.19 -3.15, 61.19 -3.15, 61.19 -3.15" stroke="#364fc7" stroke-width="4" fill="none"></path></g></g><mask></mask><g stroke-linecap="round"><g transform="translate(119.24558457997631 98.32716941886656) rotate(0 45.83826771019369 63.49915022504274)"><path d="M-0.6 1.2 C15.19 22.46, 77.61 104.57, 92.89 125.27 M4.27 -0.61 C19.97 21.18, 77.2 106.59, 91.31 127.97" stroke="#1e1e1e" stroke-width="4" fill="none"></path></g></g><mask></mask><g stroke-linecap="round"><g transform="translate(120.13053099049068 167.65195491335976) rotate(0 42.30773635507265 -64.52889382476204)"><path d="M1.21 -1.72 C15.31 -23.7, 70.04 -109.86, 83.99 -130.65 M-1.57 3.51 C12.15 -18.23, 67.27 -105.54, 81.41 -127.89" stroke="#1e1e1e" stroke-width="4" fill="none"></path></g></g><mask></mask><g stroke-linecap="round"><g transform="translate(131.09429564218408 176.23038457073312) rotate(0 36.71283904253468 -24.137480942066475)"><path d="M-0.62 -1.59 C11.46 -8.92, 61.28 -37.9, 73.73 -45.68 M4.23 3.71 C15.86 -4.18, 60.26 -41.13, 71.65 -49.29" stroke="#1e1e1e" stroke-width="4" fill="none"></path></g></g><mask></mask><g stroke-linecap="round"><g transform="translate(127.548503113258 201.54213280894425) rotate(0 42.265572039396574 55.19238289390697)"><path d="M0.3 2.59 C14.6 21.25, 71.52 92.25, 85.16 110.33 M-2.98 1.53 C11.06 20.81, 68.15 95.09, 83.26 113.94" stroke="#1e1e1e" stroke-width="4" fill="none"></path></g></g><mask></mask><g stroke-linecap="round"><g transform="translate(133.1271838432463 192.8392679917323) rotate(0 36.329007881520795 18.009369922663268)"><path d="M0.63 -0.05 C12.29 5.64, 57.88 30.85, 70.29 36.73 M-2.47 -2.55 C10.02 3.46, 62.56 25.37, 75.41 32.1" stroke="#9c36b5" stroke-width="4" fill="none"></path></g></g><mask></mask><g stroke-linecap="round"><g transform="translate(121.49366846633785 263.8722165156969) rotate(0 45.64012092810373 -61.44996695061741)"><path d="M-2.37 0.71 C13.15 -19.9, 78.11 -103.31, 93.72 -123.71 M1.55 -1.37 C16.85 -21.57, 78.15 -99.65, 92.81 -120.52" stroke="#1e1e1e" stroke-width="4" fill="none"></path></g></g><mask></mask><g stroke-linecap="round"><g transform="translate(243.66554766878033 52.67491465077592) rotate(0 47.402410985791164 105.0628878741912)"><path d="M2.44 -0.81 C18.65 34.29, 79.17 176.47, 94.85 211.32 M0.32 -3.71 C16.37 30.47, 76.75 171.27, 92.63 206.96" stroke="#1e1e1e" stroke-width="4" fill="none"></path></g></g><mask></mask><g stroke-linecap="round"><g transform="translate(248.00008429323674 218.0631377461013) rotate(0 43.860602829665424 -60.92532968222676)"><path d="M0.04 1.2 C14.54 -19.28, 74.91 -103.2, 89.42 -123.66 M-3.38 -0.62 C10.68 -20.71, 73.38 -101.4, 88.1 -121.01" stroke="#1e1e1e" stroke-width="4" fill="none"></path></g></g><mask></mask><g stroke-linecap="round"><g transform="translate(227.5496003292057 750.0530570868759) rotate(78.60880532606474 26.53768769713153 -193.9843967544038)"><path d="M-2.48 -0.81 C-10.53 -8.13, -35.6 -24.5, -49.01 -41.42 C-62.42 -58.34, -72.1 -76.07, -82.96 -102.33 C-93.81 -128.58, -113.2 -179.93, -114.15 -198.96 C-115.09 -217.99, -97.94 -221, -88.63 -216.52 C-79.31 -212.05, -67.97 -190.32, -58.28 -172.1 C-48.59 -153.88, -34.61 -100.86, -30.49 -107.21 C-26.38 -113.55, -29.99 -185.06, -33.6 -210.17 C-37.2 -235.27, -45.32 -242.99, -52.14 -257.83 C-58.96 -272.66, -69.45 -289.58, -74.5 -299.19 C-79.56 -308.81, -83.45 -310.71, -82.48 -315.51 C-81.51 -320.3, -78.51 -332.1, -68.69 -327.98 C-58.87 -323.86, -36.6 -305.83, -23.56 -290.76 C-10.52 -275.7, 9.39 -236, 9.55 -237.59 C9.71 -239.18, -11.09 -281.73, -22.58 -300.29 C-34.06 -318.85, -57.78 -338.1, -59.37 -348.96 C-60.95 -359.81, -49.86 -379.72, -32.08 -365.41 C-14.3 -351.11, 45.95 -262.17, 47.3 -263.14 C48.66 -264.1, -17.83 -350.58, -23.95 -371.23 C-30.08 -391.88, -7.5 -402.05, 10.55 -387.02 C28.61 -371.99, 78.36 -288.16, 84.38 -281.05 C90.39 -273.94, 55.51 -328.89, 46.62 -344.35 C37.73 -359.82, 30.22 -366.41, 31.05 -373.86 C31.87 -381.31, 33.91 -406.26, 51.58 -389.06 C69.24 -371.86, 118.48 -301.36, 137.04 -270.65 C155.6 -239.94, 157.72 -224.42, 162.92 -204.83 C168.13 -185.23, 167.2 -161.35, 168.27 -153.09 M1.37 -3.72 C-6.74 -10.57, -35.43 -29.19, -49.76 -45.13 C-64.1 -61.08, -74.24 -74.22, -84.66 -99.39 C-95.07 -124.55, -111.1 -176.88, -112.27 -196.14 C-113.44 -215.41, -101.13 -218.5, -91.67 -214.98 C-82.21 -211.46, -65.76 -192.69, -55.52 -175.03 C-45.27 -157.37, -33.49 -102.93, -30.2 -109.03 C-26.91 -115.12, -32.72 -187.62, -35.76 -211.62 C-38.8 -235.63, -41.08 -238.26, -48.43 -253.04 C-55.79 -267.81, -74.18 -288.93, -79.87 -300.27 C-85.57 -311.61, -85.14 -316.4, -82.62 -321.1 C-80.1 -325.81, -74.48 -333.24, -64.77 -328.5 C-55.05 -323.76, -37.68 -307.76, -24.32 -292.67 C-10.97 -277.59, 14.86 -236.62, 15.38 -237.99 C15.91 -239.37, -7.86 -282.86, -21.16 -300.92 C-34.47 -318.98, -62.17 -336.04, -64.42 -346.35 C-66.68 -356.65, -52.93 -376.85, -34.69 -362.75 C-16.44 -348.66, 42.44 -259.27, 45.05 -261.79 C47.65 -264.31, -13.53 -357.65, -19.08 -377.89 C-24.62 -398.13, -5.28 -399.04, 11.78 -383.23 C28.84 -367.43, 77.22 -290.36, 83.27 -283.07 C89.32 -275.78, 56.69 -324.07, 48.08 -339.5 C39.47 -354.94, 30.46 -366.96, 31.6 -375.67 C32.73 -384.37, 36.81 -409.17, 54.88 -391.75 C72.96 -374.33, 122.82 -302.44, 140.03 -271.12 C157.25 -239.79, 153.03 -223.48, 158.19 -203.78 C163.35 -184.08, 168.61 -160.38, 170.99 -152.93" stroke="#1e1e1e" stroke-width="4" fill="none"></path></g></g><mask></mask><g stroke-linecap="round"><g transform="translate(241.74410942038577 142.05866133306677) rotate(0 45.25725960666165 61.59663299920402)"><path d="M-0.66 -2.46 C14.13 17.77, 75.17 102.55, 90.57 123.11 M4.18 2.38 C18.44 22.93, 73.96 106.63, 88.37 126.69" stroke="#1e1e1e" stroke-width="4" fill="none"></path></g></g><mask></mask><g stroke-linecap="round"><g transform="translate(246.2162898535027 310.1435747958517) rotate(0 49.2091713199153 -104.78660412778584)"><path d="M-1.32 -0.82 C15.35 -35.45, 81.79 -173.45, 98.05 -208.37 M3.16 -3.74 C19.6 -39.16, 79.16 -178.75, 95.6 -212.72" stroke="#1e1e1e" stroke-width="4" fill="none"></path></g></g><mask></mask></svg>